<svg width="24" height="24" viewBox="0 0 24 24" fill="none" xmlns="http://www.w3.org/2000/svg">
<path d="M9.81811 12.7498C9.47564 12.7498 9.14347 12.6327 8.87678 12.4179C8.61008 12.203 8.42494 11.9034 8.35211 11.5688L6.31211 2.18475C6.26017 1.95126 6.16275 1.73029 6.02542 1.53445C5.88808 1.33861 5.71351 1.17173 5.51168 1.04336C5.10407 0.784087 4.61016 0.697359 4.13861 0.802252C3.66705 0.907145 3.25648 1.19507 2.99721 1.60268C2.73794 2.01029 2.65122 2.5042 2.75611 2.97575L6.00011 17.2498H21.7501V15.7498C21.7501 14.9541 21.434 14.191 20.8714 13.6284C20.3088 13.0658 19.5458 12.7498 18.7501 12.7498H9.81811Z" stroke="black" stroke-width="1.5" stroke-linecap="round" stroke-linejoin="round"/>
<path d="M17.2501 23.25V9.75C17.2501 9.35218 17.0921 8.97064 16.8108 8.68934C16.5295 8.40804 16.1479 8.25 15.7501 8.25H7.6311" stroke="black" stroke-width="1.5" stroke-linecap="round" stroke-linejoin="round"/>
<path d="M6 17.25L2.25 23.25" stroke="black" stroke-width="1.5" stroke-linecap="round" stroke-linejoin="round"/>
</svg>
