<svg width="24" height="24" viewBox="0 0 24 24" fill="none" xmlns="http://www.w3.org/2000/svg">
<path d="M21.4286 0.857422H2.57146C1.62469 0.857422 0.857178 1.62493 0.857178 2.57171V11.1431C0.857178 12.0899 1.62469 12.8574 2.57146 12.8574H21.4286C22.3754 12.8574 23.1429 12.0899 23.1429 11.1431V2.57171C23.1429 1.62493 22.3754 0.857422 21.4286 0.857422Z" stroke="black" stroke-width="1.5" stroke-linecap="round" stroke-linejoin="round"/>
<path d="M18.8571 12.8567V9.42815C18.8571 8.97349 18.6764 8.53746 18.355 8.21596C18.0336 7.89448 17.5975 7.71387 17.1428 7.71387H6.85711C6.40245 7.71387 5.96642 7.89448 5.64492 8.21596C5.32344 8.53746 5.14282 8.97349 5.14282 9.42815V12.8567" stroke="black" stroke-width="1.5" stroke-linecap="round" stroke-linejoin="round"/>
<path d="M4.28564 21.4283H4.45707C5.78256 21.4283 6.85707 20.3538 6.85707 19.0283V17.1426" stroke="black" stroke-width="1.5" stroke-linecap="round" stroke-linejoin="round"/>
<path d="M19.7143 21.4283H19.5428C18.2173 21.4283 17.1428 20.3538 17.1428 19.0283V17.1426" stroke="black" stroke-width="1.5" stroke-linecap="round" stroke-linejoin="round"/>
<path d="M12 23.1426V17.1426" stroke="black" stroke-width="1.5" stroke-linecap="round" stroke-linejoin="round"/>
</svg>
