<svg width="24" height="24" viewBox="0 0 24 24" fill="none" xmlns="http://www.w3.org/2000/svg">
<g clip-path="url(#clip0_515_22100)">
<path d="M12 14.998V23.498" stroke="black" stroke-width="1.5" stroke-linecap="round" stroke-linejoin="round"/>
<path d="M19.6321 4C20.7 5.06788 21.5472 6.33567 22.1252 7.73096C22.7031 9.12626 23.0006 10.6217 23.0006 12.132C23.0006 13.6423 22.7031 15.1377 22.1252 16.533C21.5472 17.9283 20.7 19.1961 19.6321 20.264" stroke="black" stroke-width="1.5" stroke-linecap="round" stroke-linejoin="round"/>
<path d="M16.8 6.82715C17.4965 7.5236 18.049 8.35041 18.426 9.26039C18.8029 10.1704 18.9969 11.1457 18.9969 12.1306C18.9969 13.1156 18.8029 14.0909 18.426 15.0009C18.049 15.9109 17.4965 16.7377 16.8 17.4341" stroke="black" stroke-width="1.5" stroke-linecap="round" stroke-linejoin="round"/>
<path d="M4.36806 4C3.3001 5.06788 2.45295 6.33567 1.87497 7.73096C1.29699 9.12626 0.999512 10.6217 0.999512 12.132C0.999512 13.6423 1.29699 15.1377 1.87497 16.533C2.45295 17.9283 3.3001 19.1961 4.36806 20.264" stroke="black" stroke-width="1.5" stroke-linecap="round" stroke-linejoin="round"/>
<path d="M7.20007 6.82715C6.50357 7.5236 5.95108 8.35041 5.57413 9.26039C5.19719 10.1704 5.00317 11.1457 5.00317 12.1306C5.00317 13.1156 5.19719 14.0909 5.57413 15.0009C5.95108 15.9109 6.50357 16.7377 7.20007 17.4341" stroke="black" stroke-width="1.5" stroke-linecap="round" stroke-linejoin="round"/>
<path d="M9 11.998C9 12.7937 9.31607 13.5568 9.87868 14.1194C10.4413 14.682 11.2044 14.998 12 14.998C12.7956 14.998 13.5587 14.682 14.1213 14.1194C14.6839 13.5568 15 12.7937 15 11.998C15 11.2024 14.6839 10.4393 14.1213 9.87673C13.5587 9.31412 12.7956 8.99805 12 8.99805C11.2044 8.99805 10.4413 9.31412 9.87868 9.87673C9.31607 10.4393 9 11.2024 9 11.998Z" stroke="black" stroke-width="1.5" stroke-linecap="round" stroke-linejoin="round"/>
</g>
<defs>
<clipPath id="clip0_515_22100">
<rect width="24" height="24" fill="white"/>
</clipPath>
</defs>
</svg>
