<svg width="24" height="24" viewBox="0 0 24 24" fill="none" xmlns="http://www.w3.org/2000/svg">
<path d="M9.10156 21.63C10.5508 20.5655 12.3034 19.9942 14.1016 20H21.6016" stroke="black" stroke-width="1.5" stroke-linecap="round" stroke-linejoin="round"/>
<path d="M20.3616 9.64984C20.511 9.59654 20.6456 9.50846 20.7542 9.39289C20.8628 9.27732 20.9424 9.13756 20.9864 8.98516C21.0303 8.83276 21.0374 8.67209 21.007 8.51641C20.9766 8.36074 20.9097 8.21452 20.8116 8.08984C19.5203 6.47497 17.7602 5.30008 15.7736 4.72689C13.787 4.1537 11.6716 4.21041 9.71851 4.88921C7.76545 5.568 6.07083 6.83551 4.86793 8.51724C3.66503 10.199 3.013 12.2122 3.0016 14.2798C2.99229 14.4442 3.02369 14.6083 3.09302 14.7576C3.16235 14.9069 3.26747 15.0368 3.39904 15.1357C3.53061 15.2346 3.68457 15.2995 3.84725 15.3247C4.00993 15.3498 4.1763 15.3344 4.3316 15.2798L20.3616 9.64984Z" stroke="black" stroke-width="1.5" stroke-linecap="round" stroke-linejoin="round"/>
<path d="M9.72152 4.89L9.06152 3" stroke="black" stroke-width="1.5" stroke-linecap="round" stroke-linejoin="round"/>
<path d="M12.3416 12.4404L14.9716 20.0004" stroke="black" stroke-width="1.5" stroke-linecap="round" stroke-linejoin="round"/>
</svg>
