<svg width="24" height="24" viewBox="0 0 24 24" fill="none" xmlns="http://www.w3.org/2000/svg">
<path d="M0.75 12C0.75 14.9837 1.93526 17.8452 4.04505 19.955C6.15483 22.0647 9.01631 23.25 12 23.25C14.9837 23.25 17.8452 22.0647 19.955 19.955C22.0647 17.8452 23.25 14.9837 23.25 12C23.25 9.01631 22.0647 6.15483 19.955 4.04505C17.8452 1.93526 14.9837 0.75 12 0.75C9.01631 0.75 6.15483 1.93526 4.04505 4.04505C1.93526 6.15483 0.75 9.01631 0.75 12V12Z" stroke="black" stroke-width="1.5" stroke-linecap="round" stroke-linejoin="round"/>
<path d="M12 7.77227C9.31299 7.72827 6.53299 9.55027 4.78599 11.4153C4.60297 11.6101 4.5011 11.8674 4.5011 12.1348C4.5011 12.4021 4.60297 12.6594 4.78599 12.8543C6.49999 14.6803 9.26399 16.5433 12 16.5003C14.736 16.5443 17.5 14.6813 19.216 12.8553C19.399 12.6604 19.5009 12.4031 19.5009 12.1358C19.5009 11.8684 19.399 11.6111 19.216 11.4163C17.467 9.55027 14.687 7.72827 12 7.77227Z" stroke="black" stroke-width="1.5" stroke-linecap="round" stroke-linejoin="round"/>
<path d="M10.5 12.1348C10.5 12.5326 10.658 12.9141 10.9393 13.1954C11.2206 13.4767 11.6022 13.6348 12 13.6348C12.3978 13.6348 12.7794 13.4767 13.0607 13.1954C13.342 12.9141 13.5 12.5326 13.5 12.1348C13.5 11.7369 13.342 11.3554 13.0607 11.0741C12.7794 10.7928 12.3978 10.6348 12 10.6348C11.6022 10.6348 11.2206 10.7928 10.9393 11.0741C10.658 11.3554 10.5 11.7369 10.5 12.1348V12.1348Z" stroke="black" stroke-width="1.5" stroke-linecap="round" stroke-linejoin="round"/>
</svg>
