<svg width="24" height="24" viewBox="0 0 24 24" fill="none" xmlns="http://www.w3.org/2000/svg">
<path d="M12.001 0.734375V23.265" stroke="black" stroke-width="1.46939" stroke-linecap="round" stroke-linejoin="round"/>
<path d="M2.24426 6.36719L21.7568 17.6325" stroke="black" stroke-width="1.46939" stroke-linecap="round" stroke-linejoin="round"/>
<path d="M2.24329 17.6335L21.7568 6.36719" stroke="black" stroke-width="1.46939" stroke-linecap="round" stroke-linejoin="round"/>
<path d="M9.552 2.69434L12.001 5.14332L14.45 2.69434" stroke="black" stroke-width="1.46939" stroke-linecap="round" stroke-linejoin="round"/>
<path d="M2.71545 9.46819L6.06174 8.57187L5.16443 5.22656" stroke="black" stroke-width="1.46939" stroke-linecap="round" stroke-linejoin="round"/>
<path d="M5.16443 18.7748L6.06174 15.4285L2.71545 14.5332" stroke="black" stroke-width="1.46939" stroke-linecap="round" stroke-linejoin="round"/>
<path d="M14.45 21.3074L12 18.8574L9.552 21.3074" stroke="black" stroke-width="1.46939" stroke-linecap="round" stroke-linejoin="round"/>
<path d="M21.2855 14.5332L17.9373 15.4295L18.8365 18.7748" stroke="black" stroke-width="1.46939" stroke-linecap="round" stroke-linejoin="round"/>
<path d="M18.8365 5.22656L17.9382 8.57383L21.2855 9.46819" stroke="black" stroke-width="1.46939" stroke-linecap="round" stroke-linejoin="round"/>
<path d="M10.5316 7.5918H13.4704" stroke="black" stroke-width="1.46939" stroke-linecap="round" stroke-linejoin="round"/>
<path d="M7.44788 11.0684L8.91726 8.52246" stroke="black" stroke-width="1.46939" stroke-linecap="round" stroke-linejoin="round"/>
<path d="M8.91726 15.4776L7.44788 12.9326" stroke="black" stroke-width="1.46939" stroke-linecap="round" stroke-linejoin="round"/>
<path d="M13.4704 16.4092H10.5316" stroke="black" stroke-width="1.46939" stroke-linecap="round" stroke-linejoin="round"/>
<path d="M16.5531 12.9316L15.0837 15.4776" stroke="black" stroke-width="1.46939" stroke-linecap="round" stroke-linejoin="round"/>
<path d="M15.0828 8.52246L16.5531 11.0694" stroke="black" stroke-width="1.46939" stroke-linecap="round" stroke-linejoin="round"/>
</svg>
