<svg width="24" height="24" viewBox="0 0 24 24" fill="none" xmlns="http://www.w3.org/2000/svg">
<path d="M14.5253 1.71484C19.3108 1.71484 23.1429 6.6565 23.1429 11.1434V12.8577C23.1429 14.7512 21.6079 16.2863 19.7143 16.2863H19.1544C18.5642 19.6428 15.6344 22.2863 12 22.2863C8.36563 22.2863 5.4358 19.6428 4.84569 16.2863H4.28575C2.3922 16.2863 0.857178 14.7512 0.857178 12.8577V11.1434C0.857178 6.6565 4.68933 1.71484 9.47474 1.71484H14.5253Z" stroke="black" stroke-width="1.71429" stroke-linejoin="round"/>
<path d="M9.42834 10.579C9.5904 10.579 9.72176 10.4477 9.72176 10.2856C9.72176 10.1236 9.5904 9.99219 9.42834 9.99219" stroke="black" stroke-width="1.71429" stroke-linecap="round" stroke-linejoin="round"/>
<path d="M9.42879 10.579C9.26674 10.579 9.13538 10.4477 9.13538 10.2856C9.13538 10.1236 9.26674 9.99219 9.42879 9.99219" stroke="black" stroke-width="1.71429" stroke-linecap="round" stroke-linejoin="round"/>
<path d="M14.5712 10.579C14.7332 10.579 14.8646 10.4477 14.8646 10.2856C14.8646 10.1236 14.7332 9.99219 14.5712 9.99219" stroke="black" stroke-width="1.71429" stroke-linecap="round" stroke-linejoin="round"/>
<path d="M14.5716 10.579C14.4096 10.579 14.2782 10.4477 14.2782 10.2856C14.2782 10.1236 14.4096 9.99219 14.5716 9.99219" stroke="black" stroke-width="1.71429" stroke-linecap="round" stroke-linejoin="round"/>
<path d="M5.99995 6.85742L4.83765 13.8312C4.10001 18.2571 7.51303 22.286 12 22.286C16.4869 22.286 19.8999 18.2571 19.1623 13.8312L18 6.85742" stroke="black" stroke-width="1.71429" stroke-linecap="round" stroke-linejoin="round"/>
<path d="M13.7143 16.2852H10.2858L12.0001 17.9994L13.7143 16.2852Z" stroke="black" stroke-width="1.71429" stroke-linecap="round" stroke-linejoin="round"/>
</svg>
