<svg width="24" height="24" viewBox="0 0 24 24" fill="none" xmlns="http://www.w3.org/2000/svg">
<path d="M17.1765 5.88281H19.0588C20.0573 5.88281 21.0148 6.27945 21.7209 6.98547C22.4269 7.69149 22.8235 8.64906 22.8235 9.64752C22.8235 10.646 22.4269 11.6035 21.7209 12.3096C21.0148 13.0156 20.0573 13.4122 19.0588 13.4122H17.12" stroke="black" stroke-width="1.5" stroke-linecap="round" stroke-linejoin="round"/>
<path d="M1.17651 20H22.8236" stroke="black" stroke-width="1.5" stroke-linecap="round" stroke-linejoin="round"/>
<path d="M2.11768 12.4706V4.47059C2.11768 4.34578 2.16726 4.22608 2.25551 4.13783C2.34376 4.04958 2.46346 4 2.58826 4H16.7059C16.8307 4 16.9504 4.04958 17.0387 4.13783C17.1269 4.22608 17.1765 4.34578 17.1765 4.47059V12.4706C17.1765 14.4675 16.3832 16.3826 14.9712 17.7947C13.5591 19.2067 11.644 20 9.64709 20C7.65016 20 5.73503 19.2067 4.32299 17.7947C2.91095 16.3826 2.11768 14.4675 2.11768 12.4706V12.4706Z" stroke="black" stroke-width="1.5" stroke-linecap="round" stroke-linejoin="round"/>
</svg>
