<svg width="24" height="24" viewBox="0 0 24 24" fill="none" xmlns="http://www.w3.org/2000/svg">
<path d="M2.00269 4.2113C2.00269 4.79777 2.23566 5.36022 2.65036 5.77492C3.06506 6.18962 3.62751 6.4226 4.21398 6.4226C4.80046 6.4226 5.36291 6.18962 5.77761 5.77492C6.19231 5.36022 6.42528 4.79777 6.42528 4.2113C6.42528 3.62483 6.19231 3.06237 5.77761 2.64767C5.36291 2.23298 4.80046 2 4.21398 2C3.62751 2 3.06506 2.23298 2.65036 2.64767C2.23566 3.06237 2.00269 3.62483 2.00269 4.2113V4.2113Z" stroke="black" stroke-width="1.5" stroke-linecap="round" stroke-linejoin="round"/>
<path d="M12.7788 20.4257C19.862 17.9075 18.8333 18.3391 20.1354 17.0371" stroke="black" stroke-width="1.5" stroke-linecap="round" stroke-linejoin="round"/>
<path d="M10.9434 8.63379H22.3466" stroke="black" stroke-width="1.5" stroke-linecap="round" stroke-linejoin="round"/>
<path d="M8.16951 21.8279L7.39644 18.3296C7.3317 18.0431 7.21082 17.7722 7.04079 17.5326C6.87075 17.2931 6.65492 17.0895 6.40578 16.9339L4.70308 15.8724C4.05083 15.4647 3.57376 14.8287 3.3648 14.0884L2.04952 9.43492C1.99405 9.23761 1.98504 9.03013 2.0232 8.82875C2.06137 8.62737 2.14567 8.43757 2.2695 8.27424C2.39332 8.11091 2.55331 7.97849 2.7369 7.88737C2.92049 7.79624 3.12269 7.74889 3.32765 7.74902H9.69619C10.0481 7.74902 10.3855 7.88881 10.6344 8.13763C10.8832 8.38645 11.023 8.72392 11.023 9.0758C11.023 9.42769 10.8832 9.76516 10.6344 10.014C10.3855 10.2628 10.0481 10.4026 9.69619 10.4026H5.66544C5.5971 10.4026 5.5297 10.4185 5.46852 10.4489C5.40734 10.4794 5.35405 10.5236 5.31283 10.5781C5.27161 10.6326 5.24358 10.6959 5.23094 10.763C5.2183 10.8302 5.2214 10.8994 5.23999 10.9651L5.91841 13.3648C5.94826 13.4705 6.01636 13.5613 6.10947 13.6196L7.81217 14.681C8.35838 15.0244 8.83128 15.4725 9.20365 15.9994C9.57602 16.5263 9.84051 17.1216 9.98189 17.7512L10.8328 21.5794" stroke="black" stroke-width="1.5" stroke-linecap="round" stroke-linejoin="round"/>
<path d="M22.3449 21.9009C20.1336 22.3617 18.7538 20.1504 18.7538 20.1504C18.4116 20.6944 17.94 21.1452 17.3811 21.4625C16.8222 21.7799 16.1934 21.9539 15.5509 21.969C14.9433 21.9577 14.35 21.7828 13.8333 21.4628C13.3167 21.1428 12.8959 20.6894 12.6152 20.1504V20.1504C12.203 20.6864 11.6793 21.1266 11.0804 21.4406C10.4814 21.7546 9.8215 21.9348 9.14613 21.969C8.50778 21.9383 7.88564 21.7576 7.33011 21.4417C6.77458 21.1257 6.3013 20.6833 5.94859 20.1504V20.1504C5.94859 20.1504 4.17955 22.3988 2.00806 21.9371" stroke="black" stroke-width="1.5" stroke-linecap="round" stroke-linejoin="round"/>
</svg>
