<svg width="24" height="24" viewBox="0 0 24 24" fill="none" xmlns="http://www.w3.org/2000/svg">
<path d="M10 5C11.1046 5 12 4.10457 12 3C12 1.89543 11.1046 1 10 1C8.89543 1 8 1.89543 8 3C8 4.10457 8.89543 5 10 5Z" stroke="black" stroke-width="1.5" stroke-linecap="round" stroke-linejoin="round"/>
<path d="M9.47192 10.1598L10.5579 9.62585L11.7579 7.07485C11.8347 6.91224 11.954 6.77335 12.1031 6.67281C12.2522 6.57228 12.4257 6.51381 12.6052 6.50357C12.7848 6.49334 12.9637 6.53171 13.1233 6.61465C13.2829 6.69759 13.4171 6.82202 13.5119 6.97485L16.0189 10.9998C16.1467 11.2035 16.1969 11.4465 16.1602 11.6841C16.1234 11.9218 16.0023 12.1382 15.8189 12.2938L13.8029 13.9938L14.8359 16.5998C14.8846 16.7221 14.9086 16.8527 14.9067 16.9843C14.9048 17.1158 14.8769 17.2457 14.8247 17.3665C14.7725 17.4872 14.697 17.5965 14.6025 17.688C14.508 17.7796 14.3963 17.8515 14.2739 17.8998C14.2297 17.9177 14.1842 17.9324 14.1379 17.9438C13.9045 18 13.6586 17.9703 13.4453 17.8601C13.2319 17.75 13.0653 17.5667 12.9759 17.3438L11.6759 14.0568C11.5984 13.8615 11.5845 13.6467 11.636 13.443C11.6875 13.2392 11.8019 13.0569 11.9629 12.9218L13.8629 11.3218L13.0569 10.0218" stroke="black" stroke-width="1.5" stroke-linecap="round" stroke-linejoin="round"/>
<path d="M23 22.8932C20.6087 23.3916 19.1165 21 19.1165 21C18.7465 21.5884 18.2365 22.0759 17.6321 22.4191C17.0277 22.7623 16.3478 22.9505 15.653 22.9669C14.9959 22.9547 14.3542 22.7656 13.7956 22.4194C13.2369 22.0733 12.7818 21.583 12.4783 21C12.0325 21.5798 11.4663 22.056 10.8186 22.3956C10.1709 22.7352 9.45716 22.9301 8.72678 22.9669C8.03647 22.9336 7.36368 22.7383 6.76294 22.3966C6.16219 22.0548 5.65037 21.5764 5.26896 21C5.26896 21 3.34443 23.4318 1 22.9324" stroke="black" stroke-width="1.5" stroke-linecap="round" stroke-linejoin="round"/>
<path d="M17.3 16.5H22C21.8961 17.2955 21.6973 18.0757 21.4081 18.824" stroke="black" stroke-width="1.5" stroke-linecap="round" stroke-linejoin="round"/>
<path d="M3.107 18.855C2.76127 18.5675 2.48293 18.2075 2.29164 17.8006C2.10035 17.3936 2.00079 16.9497 2 16.5H10.143" stroke="black" stroke-width="1.5" stroke-linecap="round" stroke-linejoin="round"/>
<path d="M14.377 13.5H19.5C21.5 13.5 22 14.5 22 16.5" stroke="black" stroke-width="1.5" stroke-linecap="round" stroke-linejoin="round"/>
<path d="M2 16.5C2 14 7.5 10.5 7.5 10.5L9.5 13.5H11.622" stroke="black" stroke-width="1.5" stroke-linecap="round" stroke-linejoin="round"/>
</svg>
