<svg width="24" height="24" viewBox="0 0 24 24" fill="none" xmlns="http://www.w3.org/2000/svg">
<path d="M6 8.5L1 9.5V2.5L6 3.5V8.5Z" stroke="black" stroke-width="1.5" stroke-linecap="round" stroke-linejoin="round"/>
<path d="M6 3.49999L18 1.52699C18.6283 1.45787 19.2641 1.52188 19.866 1.71486C20.4679 1.90784 21.0224 2.22546 21.4934 2.64703C21.9644 3.0686 22.3412 3.58466 22.5995 4.16159C22.8577 4.73853 22.9915 5.36339 22.9921 5.99547C22.9928 6.62756 22.8602 7.25269 22.6032 7.83014C22.3461 8.40759 21.9703 8.92441 21.5001 9.34693C21.03 9.76944 20.4761 10.0882 19.8746 10.2824C19.2731 10.4766 18.6374 10.5419 18.009 10.474L6 8.49999" stroke="black" stroke-width="1.5" stroke-linecap="round" stroke-linejoin="round"/>
<path d="M21.9689 8.86621L21.0759 17.5832C21.0551 17.8338 20.9406 18.0673 20.7553 18.2372C20.5699 18.4072 20.3274 18.5011 20.0759 18.5002H17.0869C16.9483 18.5007 16.8111 18.4723 16.6841 18.417C16.557 18.3616 16.4428 18.2804 16.3488 18.1786C16.2548 18.0768 16.1829 17.9565 16.1379 17.8254C16.0928 17.6944 16.0754 17.5553 16.0869 17.4172L16.8479 10.2842" stroke="black" stroke-width="1.5" stroke-linecap="round" stroke-linejoin="round"/>
<path d="M22.5 22.5H20.5C19.9696 22.5 19.4609 22.2893 19.0858 21.9142C18.7107 21.5391 18.5 21.0304 18.5 20.5V18.5" stroke="black" stroke-width="1.5" stroke-linecap="round" stroke-linejoin="round"/>
</svg>
