<svg width="24" height="24" viewBox="0 0 24 24" fill="none" xmlns="http://www.w3.org/2000/svg">
<path d="M22.4576 16.9143V6.79871C22.4578 6.78342 22.4579 6.76823 22.4579 6.75314C22.4579 6.73717 22.4578 6.72107 22.4576 6.70487V6.45894L22.448 6.45794C22.3299 4.67384 21.1443 1.87694 17.673 1.71633C11.7098 1.44044 9.38496 1.43565 3.53546 1.70275C3.34148 1.7116 3.14484 1.7489 2.97466 1.8424C2.07614 2.336 1.53538 3.34405 1.54205 4.32993V14.6438" stroke="black" stroke-width="1.5" stroke-linejoin="round"/>
<path d="M17.673 12.2105C11.7098 11.9346 9.38503 11.9298 3.53553 12.1969C3.34154 12.2057 3.14491 12.243 2.97471 12.3365C1.12174 13.3545 0.793175 16.5606 3.64058 17.2473C0.941673 18.3857 1.00337 20.9446 2.93062 22.1162C3.12866 22.2365 3.36161 22.2898 3.59311 22.3003C9.40035 22.5648 11.7294 22.5591 17.673 22.284C21.2061 22.1206 22.4581 18.9984 22.4581 17.2473C22.4581 15.4962 21.3427 12.3802 17.673 12.2105Z" stroke="black" stroke-width="1.5"/>
<path d="M3.64062 17.2471H15.5895" stroke="black" stroke-width="1.5" stroke-linecap="round"/>
<path d="M7.7439 1.55371V12.0002" stroke="black" stroke-width="1.5" stroke-linecap="round"/>
</svg>
