<svg width="24" height="24" viewBox="0 0 24 24" fill="none" xmlns="http://www.w3.org/2000/svg">
<path d="M22.0435 3H1.95652C1.42825 3 1 3.4264 1 3.95238V22.0476C1 22.5736 1.42825 23 1.95652 23H22.0435C22.5718 23 23 22.5736 23 22.0476V3.95238C23 3.4264 22.5718 3 22.0435 3Z" stroke="black" stroke-width="1.5" stroke-linecap="round" stroke-linejoin="round"/>
<path d="M6 1V6" stroke="black" stroke-width="1.5" stroke-linecap="round" stroke-linejoin="round"/>
<path d="M18 1V6" stroke="black" stroke-width="1.5" stroke-linecap="round" stroke-linejoin="round"/>
<path d="M1 8H23" stroke="black" stroke-width="1.5" stroke-linecap="round" stroke-linejoin="round"/>
<path d="M10.5 17.0998C10.5 17.4163 10.5938 17.7256 10.7696 17.9887C10.9455 18.2518 11.1953 18.4569 11.4877 18.578C11.7801 18.6991 12.1018 18.7308 12.4121 18.6691C12.7225 18.6073 13.0076 18.4549 13.2314 18.2312C13.4551 18.0074 13.6075 17.7223 13.6693 17.4119C13.731 17.1016 13.6993 16.7799 13.5782 16.4875C13.4571 16.1951 13.252 15.9453 12.9889 15.7695C12.7258 15.5936 12.4164 15.4998 12.1 15.4998C11.7836 15.4998 11.4742 15.406 11.2111 15.2302C10.948 15.0543 10.7429 14.8045 10.6218 14.5121C10.5007 14.2197 10.469 13.898 10.5307 13.5877C10.5925 13.2773 10.7449 12.9922 10.9686 12.7684C11.1924 12.5447 11.4775 12.3923 11.7879 12.3305C12.0982 12.2688 12.4199 12.3005 12.7123 12.4216C13.0047 12.5427 13.2545 12.7478 13.4304 13.0109C13.6062 13.274 13.7 13.5834 13.7 13.8998" stroke="black" stroke-width="1.5" stroke-linecap="round" stroke-linejoin="round"/>
<path d="M12.0999 11.5V12.3" stroke="black" stroke-width="1.5" stroke-linecap="round" stroke-linejoin="round"/>
<path d="M12.0999 18.7002V19.5002" stroke="black" stroke-width="1.5" stroke-linecap="round" stroke-linejoin="round"/>
</svg>
