<svg width="48" height="48" viewBox="0 0 48 48" fill="none" xmlns="http://www.w3.org/2000/svg">
<path d="M19.5 28.5L44.25 3.75" stroke="black" stroke-width="2" stroke-linecap="round" stroke-linejoin="round"/>
<path d="M45.7503 2.24951L30.089 45.6193C29.9833 45.85 29.8136 46.0455 29.6 46.1825C29.3865 46.3196 29.1381 46.3924 28.8843 46.3924C28.6306 46.3924 28.3821 46.3196 28.1686 46.1825C27.955 46.0455 27.7853 45.85 27.6796 45.6193L19.2466 28.7533L2.38054 20.3203C2.14986 20.2146 1.95437 20.0448 1.81732 19.8313C1.68028 19.6177 1.60742 19.3693 1.60742 19.1155C1.60742 18.8618 1.68028 18.6134 1.81732 18.3998C1.95437 18.1863 2.14986 18.0165 2.38054 17.9108L45.7503 2.24951Z" stroke="black" stroke-width="2" stroke-linecap="round" stroke-linejoin="round"/>
</svg>
